<svg width="1024" height="1024" viewBox="0 0 1024 1024" fill="none" xmlns="http://www.w3.org/2000/svg">
  <defs>
    <radialGradient id="bg" cx="0" cy="0" r="1" gradientUnits="userSpaceOnUse" gradientTransform="translate(380 420) rotate(44) scale(780 820)">
      <stop offset="0" stop-color="#A7B6CC"/>
      <stop offset="0.36" stop-color="#7B879A"/>
      <stop offset="0.72" stop-color="#4A5160"/>
      <stop offset="1" stop-color="#20252F"/>
    </radialGradient>
    <radialGradient id="glow" cx="0" cy="0" r="1" gradientUnits="userSpaceOnUse" gradientTransform="translate(512 510) rotate(90) scale(330)">
      <stop offset="0" stop-color="#BDE9FF" stop-opacity="0.98"/>
      <stop offset="0.45" stop-color="#56B8FF" stop-opacity="0.48"/>
      <stop offset="1" stop-color="#56B8FF" stop-opacity="0"/>
    </radialGradient>
    <radialGradient id="floor" cx="0" cy="0" r="1" gradientUnits="userSpaceOnUse" gradientTransform="translate(512 735) rotate(90) scale(220 330)">
      <stop offset="0" stop-color="#84C9FF" stop-opacity="0.55"/>
      <stop offset="1" stop-color="#84C9FF" stop-opacity="0"/>
    </radialGradient>
    <linearGradient id="topFace" x1="0" y1="0" x2="1" y2="1">
      <stop offset="0" stop-color="#E7F8FF"/>
      <stop offset="1" stop-color="#B4E7FF"/>
    </linearGradient>
    <linearGradient id="leftFace" x1="0" y1="0" x2="1" y2="1">
      <stop offset="0" stop-color="#3090FF"/>
      <stop offset="1" stop-color="#0F4ECE"/>
    </linearGradient>
    <linearGradient id="rightFace" x1="0" y1="0" x2="1" y2="1">
      <stop offset="0" stop-color="#67C1FF"/>
      <stop offset="1" stop-color="#197BFF"/>
    </linearGradient>
    <linearGradient id="connector" x1="0" y1="0" x2="1" y2="1">
      <stop offset="0" stop-color="#B9F4FF"/>
      <stop offset="1" stop-color="#59AFFF"/>
    </linearGradient>
    <linearGradient id="coreCrystal" x1="462" y1="418" x2="620" y2="650" gradientUnits="userSpaceOnUse">
      <stop offset="0" stop-color="#56C6FF" stop-opacity="0.55"/>
      <stop offset="1" stop-color="#0C6CFF" stop-opacity="0.12"/>
    </linearGradient>
  </defs>

  <rect width="1024" height="1024" rx="220" fill="url(#bg)"/>
  <circle cx="512" cy="510" r="350" fill="url(#glow)"/>
  <ellipse cx="512" cy="735" rx="360" ry="205" fill="url(#floor)"/>

  <path d="M512 470L618 533V654L512 716L406 654V533L512 470Z" fill="url(#coreCrystal)" stroke="#6FD8FF" stroke-opacity="0.45" stroke-width="6"/>
  <path d="M512 470L618 533L512 595L406 533L512 470Z" fill="#C8F4FF" fill-opacity="0.12"/>

  <g opacity="0.95">
    <path d="M512 244L621 307L512 371L403 307L512 244Z" fill="url(#topFace)" stroke="#E6FBFF" stroke-width="8" stroke-linejoin="round"/>
    <path d="M403 307L512 371V503L403 439V307Z" fill="url(#leftFace)" stroke="#2E97FF" stroke-width="8" stroke-linejoin="round"/>
    <path d="M621 307L512 371V503L621 439V307Z" fill="url(#rightFace)" stroke="#67C6FF" stroke-width="8" stroke-linejoin="round"/>
    <path d="M512 244V503" stroke="#F2FFFF" stroke-width="8" stroke-linecap="round" opacity="0.85"/>
  </g>

  <g opacity="0.98">
    <path d="M347 472L456 535L347 599L238 535L347 472Z" fill="url(#topFace)" stroke="#E6FBFF" stroke-width="8" stroke-linejoin="round"/>
    <path d="M238 535L347 599V731L238 667V535Z" fill="url(#leftFace)" stroke="#2E97FF" stroke-width="8" stroke-linejoin="round"/>
    <path d="M456 535L347 599V731L456 667V535Z" fill="url(#rightFace)" stroke="#67C6FF" stroke-width="8" stroke-linejoin="round"/>
    <path d="M347 472V731" stroke="#F2FFFF" stroke-width="8" stroke-linecap="round" opacity="0.85"/>
  </g>

  <g opacity="0.98">
    <path d="M677 472L786 535L677 599L568 535L677 472Z" fill="url(#topFace)" stroke="#E6FBFF" stroke-width="8" stroke-linejoin="round"/>
    <path d="M568 535L677 599V731L568 667V535Z" fill="url(#leftFace)" stroke="#2E97FF" stroke-width="8" stroke-linejoin="round"/>
    <path d="M786 535L677 599V731L786 667V535Z" fill="url(#rightFace)" stroke="#67C6FF" stroke-width="8" stroke-linejoin="round"/>
    <path d="M677 472V731" stroke="#F2FFFF" stroke-width="8" stroke-linecap="round" opacity="0.85"/>
  </g>

  <path d="M467 528L395 583" stroke="url(#connector)" stroke-width="11" stroke-linecap="round"/>
  <path d="M557 528L629 583" stroke="url(#connector)" stroke-width="11" stroke-linecap="round"/>
  <path d="M448 610L576 610" stroke="url(#connector)" stroke-width="11" stroke-linecap="round"/>

  <circle cx="456" cy="573" r="19" fill="#C2F7FF" fill-opacity="0.25"/>
  <circle cx="456" cy="573" r="11" fill="#F1FFFF"/>
  <circle cx="456" cy="573" r="6" fill="#57C0FF"/>
  <circle cx="568" cy="573" r="19" fill="#C2F7FF" fill-opacity="0.25"/>
  <circle cx="568" cy="573" r="11" fill="#F1FFFF"/>
  <circle cx="568" cy="573" r="6" fill="#57C0FF"/>
  <circle cx="412" cy="620" r="19" fill="#C2F7FF" fill-opacity="0.25"/>
  <circle cx="412" cy="620" r="11" fill="#F1FFFF"/>
  <circle cx="412" cy="620" r="6" fill="#57C0FF"/>
  <circle cx="612" cy="620" r="19" fill="#C2F7FF" fill-opacity="0.25"/>
  <circle cx="612" cy="620" r="11" fill="#F1FFFF"/>
  <circle cx="612" cy="620" r="6" fill="#57C0FF"/>

  <g opacity="0.78">
    <path d="M398 751L538 692" stroke="#DFF8FF" stroke-width="4" stroke-linecap="round"/>
    <path d="M431 776L560 723" stroke="#C6ECFF" stroke-width="4" stroke-linecap="round"/>
    <path d="M463 798L587 745" stroke="#B2E0FF" stroke-width="4" stroke-linecap="round"/>
    <path d="M511 773L624 727" stroke="#87C6FF" stroke-width="4" stroke-linecap="round"/>
  </g>

  <g fill="#D9F8FF">
    <circle cx="372" cy="377" r="4"/>
    <circle cx="338" cy="414" r="4"/>
    <circle cx="327" cy="446" r="3"/>
    <circle cx="655" cy="380" r="5"/>
    <circle cx="685" cy="442" r="3"/>
    <circle cx="671" cy="431" r="2.5"/>
    <circle cx="474" cy="498" r="2.5"/>
    <circle cx="480" cy="529" r="2.5"/>
    <circle cx="544" cy="535" r="2.5"/>
    <circle cx="474" cy="659" r="2.5"/>
    <circle cx="522" cy="670" r="3"/>
    <circle cx="546" cy="651" r="4"/>
    <circle cx="424" cy="732" r="3"/>
    <circle cx="550" cy="785" r="2.5"/>
  </g>
  <g fill="#75CAFF">
    <circle cx="392" cy="650" r="3"/>
    <circle cx="540" cy="609" r="3"/>
    <circle cx="594" cy="697" r="2.5"/>
    <circle cx="470" cy="778" r="2.5"/>
  </g>
</svg>
